<svg width="16" height="16" viewBox="0 0 16 16" fill="none" xmlns="http://www.w3.org/2000/svg">
<g clip-path="url(#clip0_16092_127006)">
<path d="M12.3859 5.50797H11.0291C10.871 5.50797 10.7206 5.44013 10.6159 5.32205L10.0655 4.70029C9.98362 4.60749 9.86554 4.55469 9.74202 4.55469C9.6185 4.55469 9.50042 4.60781 9.4185 4.70029L8.9465 5.23373C8.79194 5.40813 8.57018 5.50829 8.33722 5.50829H0.910339C0.698819 6.11117 0.560899 6.74797 0.505859 7.40845H7.51706C7.64026 7.40845 7.75834 7.35821 7.84346 7.26925L8.49626 6.58797C8.57786 6.50285 8.6905 6.45485 8.80826 6.45485H8.83514C8.95898 6.45485 9.07674 6.50797 9.15866 6.60077L9.70874 7.22253C9.81338 7.34093 9.96378 7.40845 10.1219 7.40845H15.8447C15.7897 6.74765 15.6518 6.11085 15.4403 5.50829H12.3855L12.3859 5.50797Z" fill="black"/>
<path d="M4.74829 11.4047C4.87149 11.4047 4.98957 11.3545 5.07469 11.2655L5.72749 10.5842C5.80909 10.4991 5.92173 10.4511 6.03949 10.4511H6.06637C6.19021 10.4511 6.30797 10.5042 6.38989 10.5967L6.93997 11.2185C7.04461 11.3369 7.19501 11.4044 7.35309 11.4044H15.1086C15.3992 10.8041 15.612 10.1599 15.7387 9.48502H8.29453C8.13645 9.48502 7.98605 9.41718 7.88141 9.2991L7.33133 8.67734C7.24941 8.58454 7.13133 8.53174 7.00781 8.53174C6.88429 8.53174 6.76621 8.58486 6.68429 8.67734L6.21229 9.21078C6.05773 9.38518 5.83597 9.48534 5.60269 9.48534H0.611328C0.738048 10.1602 0.951168 10.8044 1.24141 11.4047H4.74829Z" fill="black"/>
<path d="M10.2516 3.43149C10.3748 3.43149 10.4928 3.38125 10.578 3.29229L11.2308 2.61101C11.3124 2.52589 11.425 2.47789 11.5428 2.47789H11.5696C11.6935 2.47789 11.8112 2.53101 11.8932 2.62381L12.4432 3.24557C12.5479 3.36397 12.6983 3.43149 12.8564 3.43149H14.3312C12.9268 1.56461 10.6928 0.356934 8.17636 0.356934C5.65988 0.356934 3.42596 1.56461 2.02148 3.43149H10.2516Z" fill="black"/>
<path d="M7.28899 13.3068H5.27203C5.11395 13.3068 4.96355 13.239 4.85891 13.1209L4.30883 12.4991C4.22691 12.4063 4.10883 12.3535 3.98531 12.3535C3.86179 12.3535 3.74371 12.4066 3.66179 12.4991L3.18979 13.0326C3.03523 13.207 2.81347 13.3071 2.58019 13.3071H2.54883C3.95395 14.8127 5.95491 15.7551 8.17667 15.7551C10.3984 15.7551 12.3991 14.8127 13.8045 13.3071H7.28899V13.3068Z" fill="black"/>
</g>
<defs>
<clipPath id="clip0_16092_127006">
<rect width="16" height="16" fill="white"/>
</clipPath>
</defs>
</svg>
