<svg width="16" height="16" viewBox="0 0 16 16" fill="none" xmlns="http://www.w3.org/2000/svg">
<path fill-rule="evenodd" clip-rule="evenodd" d="M1 16H16V9H1V16Z" fill="#1152AD"/>
<path fill-rule="evenodd" clip-rule="evenodd" d="M7 1L3 5H7V1Z" fill="#A3ADB5"/>
<path fill-rule="evenodd" clip-rule="evenodd" d="M8 1V6H3V8H13V1H8Z" fill="#A3ADB5"/>
<path d="M2.73779 14.8001H3.48779V12.8741L4.02779 14.8001H4.54379L5.08379 12.8741V14.8001H5.83379V10.3001H5.11379L4.28579 13.4231L3.45779 10.3001H2.73779V14.8001Z" fill="white"/>
<path d="M7.85445 14.8961C8.19445 14.8961 8.46445 14.7941 8.66445 14.5901C8.86445 14.3861 8.96445 14.1181 8.96445 13.7861V11.3141C8.96445 10.9801 8.86445 10.7121 8.66445 10.5101C8.46445 10.3061 8.19445 10.2041 7.85445 10.2041C7.51645 10.2041 7.24645 10.3061 7.04445 10.5101C6.84445 10.7121 6.74445 10.9801 6.74445 11.3141V13.7861C6.74445 14.1181 6.84445 14.3861 7.04445 14.5901C7.24645 14.7941 7.51645 14.8961 7.85445 14.8961ZM7.85445 14.0861C7.75845 14.0861 7.68445 14.0591 7.63245 14.0051C7.58045 13.9491 7.55445 13.8761 7.55445 13.7861V11.3141C7.55445 11.2241 7.58045 11.1521 7.63245 11.0981C7.68445 11.0421 7.75845 11.0141 7.85445 11.0141C7.95045 11.0141 8.02445 11.0421 8.07645 11.0981C8.12845 11.1521 8.15445 11.2241 8.15445 11.3141V13.7861C8.15445 13.8761 8.12845 13.9491 8.07645 14.0051C8.02445 14.0591 7.95045 14.0861 7.85445 14.0861Z" fill="white"/>
<path d="M10.2621 14.8001H11.1381L11.9721 10.3001H11.1441L10.7001 13.2971L10.2381 10.3001H9.41011L10.2621 14.8001Z" fill="white"/>
<path d="M14.4603 10.3001H12.6003V14.8001H14.4603V13.9901H13.4103V12.8201H14.2983V12.0101H13.4103V11.1101H14.4603V10.3001Z" fill="white"/>
</svg>
