<svg width="16" height="16" viewBox="0 0 16 16" fill="none" xmlns="http://www.w3.org/2000/svg">
<g clip-path="url(#clip0_16092_127011)">
<path d="M12.8038 5.22965H11.447C11.2889 5.22965 11.1385 5.16181 11.0339 5.04373L10.4835 4.42197C10.4016 4.32917 10.2835 4.27637 10.16 4.27637C10.0365 4.27637 9.91839 4.32949 9.83647 4.42197L9.36447 4.95541C9.20991 5.12981 8.98815 5.22997 8.75519 5.22997H1.32831C1.11679 5.83285 0.978868 6.46965 0.923828 7.13013H7.93503C8.05823 7.13013 8.17631 7.07989 8.26143 6.99093L8.91423 6.30965C8.99583 6.22453 9.10847 6.17653 9.22623 6.17653H9.25311C9.37695 6.17653 9.49471 6.22965 9.57663 6.32245L10.1267 6.94421C10.2313 7.06261 10.3817 7.13013 10.5398 7.13013H16.2627C16.2077 6.46933 16.0697 5.83253 15.8582 5.22997H12.8035L12.8038 5.22965Z" fill="white"/>
<path d="M5.16658 11.1254C5.28978 11.1254 5.40786 11.0752 5.49298 10.9862L6.14578 10.3049C6.22738 10.2198 6.34002 10.1718 6.45778 10.1718H6.48466C6.6085 10.1718 6.72626 10.2249 6.80818 10.3174L7.35826 10.9392C7.4629 11.0576 7.6133 11.1251 7.77138 11.1251H15.5269C15.8175 10.5248 16.0303 9.8806 16.157 9.20572H8.71282C8.55474 9.20572 8.40434 9.13788 8.2997 9.0198L7.74962 8.39804C7.6677 8.30524 7.54962 8.25244 7.4261 8.25244C7.30258 8.25244 7.1845 8.30556 7.10258 8.39804L6.63058 8.93148C6.47602 9.10588 6.25426 9.20604 6.02098 9.20604H1.0293C1.15602 9.88092 1.36914 10.5251 1.65938 11.1254H5.16626H5.16658Z" fill="white"/>
<path d="M10.6699 3.15268C10.7931 3.15268 10.9111 3.10245 10.9963 3.01349L11.6491 2.3322C11.7307 2.24708 11.8433 2.19909 11.9611 2.19909H11.9879C12.1118 2.19909 12.2295 2.2522 12.3115 2.345L12.8615 2.96677C12.9662 3.08517 13.1166 3.15268 13.2747 3.15268H14.7495C13.3451 1.2858 11.1111 0.078125 8.59465 0.078125C6.07817 0.078125 3.84425 1.2858 2.43945 3.15268H10.6699Z" fill="white"/>
<path d="M7.70696 13.0275H5.69C5.53192 13.0275 5.38152 12.9597 5.27688 12.8416L4.7268 12.2198C4.64488 12.127 4.5268 12.0742 4.40328 12.0742C4.27976 12.0742 4.16168 12.1273 4.07976 12.2198L3.60776 12.7533C3.4532 12.9277 3.23144 13.0278 2.99816 13.0278H2.9668C4.37192 14.5334 6.37288 15.4758 8.59464 15.4758C10.8164 15.4758 12.817 14.5334 14.2225 13.0278H7.70696V13.0275Z" fill="white"/>
</g>
<defs>
<clipPath id="clip0_16092_127011">
<rect width="16" height="16" fill="white"/>
</clipPath>
</defs>
</svg>
