<svg width="24" height="24" viewBox="0 0 24 24" fill="none" xmlns="http://www.w3.org/2000/svg">
<path d="M18.5906 8.02561H16.4661C16.3443 8.02526 16.224 7.99909 16.1132 7.94884C16.0023 7.89858 15.9035 7.8254 15.8232 7.73416L14.9618 6.77332C14.8979 6.70266 14.8199 6.64616 14.7327 6.60748C14.6454 6.56881 14.5511 6.54883 14.4556 6.54883C14.3602 6.54883 14.2658 6.56881 14.1786 6.60748C14.0914 6.64616 14.0133 6.70266 13.9494 6.77332L13.2101 7.60605C13.0891 7.74154 12.9405 7.84986 12.7743 7.92384C12.608 7.99783 12.4279 8.0358 12.2459 8.03522H0.642828C0.302988 8.99149 0.0869676 9.98706 0 10.9978H10.9699C11.0654 10.9976 11.1598 10.9782 11.2477 10.9408C11.3355 10.9034 11.4148 10.8487 11.4809 10.78L12.503 9.71669C12.5667 9.65188 12.6427 9.60037 12.7266 9.56517C12.8105 9.52998 12.9005 9.5118 12.9916 9.51171H13.0333C13.129 9.51085 13.2237 9.53075 13.3108 9.57002C13.3979 9.60929 13.4755 9.66699 13.538 9.73911L14.3994 10.7C14.4799 10.7909 14.5788 10.8638 14.6895 10.9141C14.8003 10.9643 14.9205 10.9906 15.0422 10.9914H24C23.9146 9.98042 23.6986 8.98465 23.3572 8.02882H18.5906V8.02561Z" fill="white"/>
<path d="M6.63734 17.2193C6.73296 17.2199 6.82767 17.2008 6.91558 17.1633C7.0035 17.1259 7.08274 17.0708 7.14839 17.0015L8.17049 15.9414C8.23355 15.8756 8.30937 15.8232 8.39334 15.7874C8.47732 15.7516 8.56771 15.7332 8.65904 15.7332H8.70082C8.79677 15.7334 8.8916 15.7537 8.97911 15.7929C9.06663 15.8321 9.14485 15.8892 9.20866 15.9606L10.07 16.9215C10.151 17.0116 10.25 17.0839 10.3608 17.1335C10.4715 17.1832 10.5915 17.2091 10.7129 17.2097H22.8495C23.3101 16.2606 23.642 15.2546 23.8362 14.2183H12.1882C12.0664 14.2179 11.9461 14.1918 11.8353 14.1415C11.7244 14.0913 11.6256 14.0181 11.5453 13.9268L10.684 12.966C10.6206 12.8944 10.5427 12.8371 10.4554 12.7978C10.3682 12.7586 10.2735 12.7383 10.1777 12.7383C10.082 12.7383 9.9873 12.7586 9.90001 12.7978C9.81273 12.8371 9.73484 12.8944 9.6715 12.966L8.93224 13.7955C8.81118 13.931 8.66261 14.0393 8.49638 14.1133C8.33016 14.1873 8.15006 14.2253 7.968 14.2247H0.164062C0.359807 15.2607 0.691571 16.2664 1.1508 17.2161L6.63734 17.2193Z" fill="white"/>
<path d="M15.2482 4.79834C15.3427 4.79526 15.4357 4.77358 15.5217 4.73456C15.6078 4.69553 15.6852 4.63992 15.7496 4.57094L16.7814 3.51722C16.8446 3.45182 16.9205 3.39992 17.0045 3.36468C17.0885 3.32944 17.1788 3.3116 17.2699 3.31224H17.3117C17.4069 3.31182 17.5012 3.33159 17.5882 3.37025C17.6752 3.4089 17.753 3.46555 17.8163 3.53643L18.6777 4.49727C18.758 4.58852 18.8568 4.6617 18.9676 4.71195C19.0785 4.7622 19.1988 4.78837 19.3205 4.78873H21.6315C20.5084 3.30074 19.0534 2.09347 17.3814 1.26236C15.7094 0.431243 13.8664 -0.000930515 11.9979 1.50429e-06C10.1295 0.000933524 8.28682 0.434945 6.61569 1.26773C4.94455 2.10051 3.49073 3.30923 2.36914 4.79834H15.2482Z" fill="white"/>
<path d="M10.6071 20.1731H7.45727C7.33584 20.1725 7.21589 20.1466 7.10516 20.0969C6.99443 20.0473 6.89539 19.975 6.81444 19.8848L5.95305 18.924C5.88971 18.8524 5.81181 18.7951 5.72453 18.7559C5.63725 18.7166 5.54258 18.6963 5.44682 18.6963C5.35106 18.6963 5.25639 18.7166 5.16911 18.7559C5.08183 18.7951 5.00393 18.8524 4.94059 18.924L4.20134 19.7567C4.07998 19.8916 3.93129 19.9994 3.76507 20.0728C3.59886 20.1462 3.41891 20.1837 3.2371 20.1827H3.19531C4.32139 21.3873 5.68431 22.3479 7.19917 23.0047C8.71404 23.6615 10.3484 24.0005 12.0005 24.0005C13.6525 24.0005 15.2869 23.6615 16.8017 23.0047C18.3166 22.3479 19.6795 21.3873 20.8056 20.1827L10.6071 20.1731Z" fill="white"/>
</svg>
