<svg width="40" height="40" viewBox="0 0 40 40" fill="none" xmlns="http://www.w3.org/2000/svg">
<rect x="0.5" y="0.5" width="39" height="39" rx="19.5" fill="#050607" stroke="#121314"/>
<path d="M14.0283 25.2513C14.0283 25.6486 14.3504 25.9707 14.7477 25.9707H25.021C25.5186 25.9707 25.8659 26.4636 25.6985 26.9321L24.7731 29.5226C24.6708 29.8089 24.3996 30 24.0956 30H15.9015C15.5975 30 15.3263 29.8089 15.224 29.5225L14.152 26.5204C14.0497 26.2341 13.7785 26.043 13.4744 26.043H10.7194C10.3221 26.043 10 25.7209 10 25.3236V22.7341C10 22.3367 10.3221 22.0146 10.7194 22.0146H13.3089C13.7062 22.0146 14.0283 22.3367 14.0283 22.7341V25.2513ZM30 21.2952C30 21.6926 29.6779 22.0146 29.2806 22.0146H18.778C18.3807 22.0146 18.0586 21.6926 18.0586 21.2952V18.7048C18.0586 18.3074 18.3807 17.9854 18.778 17.9854H29.2806C29.6779 17.9854 30 18.3074 30 18.7048V21.2952ZM25.6985 13.0679C25.8659 13.5364 25.5186 14.0293 25.021 14.0293H14.7477C14.3504 14.0293 14.0283 14.3514 14.0283 14.7487V17.2659C14.0283 17.6633 13.7062 17.9854 13.3089 17.9854H10.7194C10.3221 17.9854 10 17.6633 10 17.2659V14.6755C10 14.2781 10.3221 13.9561 10.7194 13.9561H13.4753C13.7794 13.9561 14.0507 13.7649 14.1529 13.4785L15.2241 10.4776C15.3263 10.1912 15.5975 10 15.9016 10H24.0956C24.3996 10 24.6708 10.1911 24.7731 10.4774L25.6985 13.0679Z" fill="#F2F3F4"/>
</svg>
