<svg width="24" height="24" viewBox="0 0 24 24" fill="none" xmlns="http://www.w3.org/2000/svg">
<path fill-rule="evenodd" clip-rule="evenodd" d="M18.0274 4.83453C18.6244 4.83453 19.0412 4.24309 18.8404 3.68086L17.7304 0.572947C17.6077 0.229356 17.2823 0 16.9174 0H7.08385C6.71901 0 6.39355 0.229356 6.27084 0.572947L4.98424 4.17542C4.86153 4.51901 4.53607 4.74837 4.17123 4.74837H0.863309C0.386517 4.74837 0 5.13489 0 5.61168V8.71959C0 9.19639 0.386517 9.5829 0.863309 9.5829H3.97122C4.44802 9.5829 4.83453 9.19639 4.83453 8.71959V5.69784C4.83453 5.22105 5.22105 4.83453 5.69784 4.83453L18.0274 4.83453ZM0 15.2807C0 14.804 0.386517 14.4174 0.863309 14.4174H3.97122C4.44802 14.4174 4.83453 14.804 4.83453 15.2807V18.3022C4.83453 18.7789 5.22105 19.1655 5.69784 19.1655H18.0274C18.6244 19.1655 19.0412 19.7569 18.8404 20.3191L17.7304 23.4271C17.6077 23.7706 17.2823 24 16.9174 24L7.08385 24C6.71901 24 6.39355 23.7706 6.27084 23.4271L4.98436 19.8249C4.86165 19.4813 4.53619 19.252 4.17135 19.252H0.863309C0.386517 19.252 0 18.8654 0 18.3887V15.2807ZM23.1367 14.4173C23.6135 14.4173 24 14.0308 24 13.554V10.446C24 9.96925 23.6135 9.58273 23.1367 9.58273L10.5324 9.58273C10.0556 9.58273 9.66906 9.96925 9.66906 10.446V13.554C9.66906 14.0308 10.0556 14.4173 10.5324 14.4173H23.1367Z" fill="#F2F3F4"/>
</svg>
