<svg width="12" height="12" viewBox="0 0 12 12" fill="none" xmlns="http://www.w3.org/2000/svg">
<g clip-path="url(#clip0_4670_11612)">
<path d="M4 10C6.20914 10 8 8.20914 8 6C8 3.79086 6.20914 2 4 2C1.79086 2 0 3.79086 0 6C0 8.20914 1.79086 10 4 10Z" fill="#62B543" fill-opacity="0.7"/>
<path fill-rule="evenodd" clip-rule="evenodd" d="M10 3H12L9.5 0L7 3H9V12H10V3Z" fill="#DB5860"/>
<path d="M3.46656 7.20071C3.65283 7.20071 3.80255 7.17123 3.91572 7.11229C4.03126 7.05334 4.08902 6.96493 4.08902 6.84704C4.08902 6.76687 4.06662 6.69968 4.02182 6.64545C3.97703 6.59122 3.89097 6.53935 3.76365 6.48983C3.63633 6.44032 3.4477 6.38137 3.19778 6.313C2.96907 6.25169 2.7663 6.17389 2.58946 6.07958C2.41499 5.98526 2.27823 5.86384 2.17921 5.7153C2.08254 5.56675 2.0342 5.38167 2.0342 5.16004C2.0342 4.93604 2.09668 4.73681 2.22165 4.56233C2.34661 4.38786 2.53052 4.2511 2.77337 4.15208C3.01622 4.05069 3.31331 4 3.66462 4C3.99943 4 4.29061 4.04362 4.53818 4.13086C4.78811 4.21574 5.00385 4.3242 5.1854 4.45623L4.73977 5.11406C4.58416 5.01739 4.41676 4.94076 4.23756 4.88417C4.05837 4.82523 3.878 4.79576 3.69645 4.79576C3.5149 4.79576 3.37933 4.82051 3.28973 4.87003C3.20249 4.91718 3.15887 4.9891 3.15887 5.08576C3.15887 5.14943 3.18127 5.20483 3.22607 5.25199C3.27322 5.29679 3.36046 5.34394 3.48778 5.39346C3.6151 5.44061 3.80137 5.49956 4.04658 5.57029C4.28943 5.63867 4.50046 5.71765 4.67965 5.80725C4.8612 5.89685 5.00149 6.01709 5.10052 6.16799C5.19954 6.31653 5.24906 6.51341 5.24906 6.75862C5.24906 7.03212 5.16771 7.26201 5.00503 7.44828C4.84234 7.63218 4.6266 7.77011 4.35781 7.86207C4.08902 7.95402 3.7943 8 3.47364 8C3.11054 8 2.78988 7.94813 2.51166 7.84439C2.23344 7.74064 1.99648 7.60389 1.80078 7.43413L2.36312 6.8046C2.5093 6.91777 2.67434 7.01208 2.85825 7.08753C3.04452 7.16298 3.24729 7.20071 3.46656 7.20071Z" fill="#3F4E37"/>
</g>
<defs>
<clipPath id="clip0_4670_11612">
<rect width="12" height="12" fill="white"/>
</clipPath>
</defs>
</svg>
